<svg xmlns="http://www.w3.org/2000/svg" fill="currentColor" viewBox="0 0 26 18"><path fill-rule="evenodd" d="M20.418 2.53a13.655 13.655 0 0 1 4.806 6.192.818.818 0 0 1 0 .556A13.655 13.655 0 0 1 13 18 13.655 13.655 0 0 1 .776 9.278a.818.818 0 0 1 0-.556A13.655 13.655 0 0 1 13 0c2.667.1 5.246.98 7.418 2.53ZM2.421 9C4.08 13.148 8.664 16.364 13 16.364S21.918 13.148 23.58 9C21.917 4.852 17.335 1.636 13 1.636S4.082 4.852 2.42 9Zm7.852-4.082a4.91 4.91 0 1 1 5.454 8.164 4.91 4.91 0 0 1-5.454-8.164Zm.909 6.803a3.272 3.272 0 1 0 3.636-5.442 3.272 3.272 0 0 0-3.636 5.442Z" clip-rule="evenodd"/></svg>