<svg xmlns="http://www.w3.org/2000/svg" viewBox="0 0 20 20"><path d="M10 0c2.724 0 3.062 0 4.125.06.83.017 1.65.175 2.426.467.668.254 1.272.65 1.77 1.162.508.498.902 1.1 1.153 1.768.292.775.45 1.595.467 2.424.06 1.063.06 1.41.06 4.123 0 2.712-.06 3.06-.06 4.123-.017.83-.175 1.648-.467 2.424-.52 1.34-1.58 2.402-2.922 2.92-.776.293-1.596.45-2.425.468-1.063.06-1.41.06-4.125.06-2.714 0-3.062-.06-4.125-.06-.83-.017-1.65-.175-2.426-.467-.668-.254-1.272-.65-1.77-1.162-.508-.498-.902-1.1-1.153-1.768-.292-.775-.45-1.595-.467-2.424C0 13.055 0 12.708 0 9.995c0-2.712 0-3.04.06-4.123.017-.83.175-1.648.467-2.424.25-.667.645-1.27 1.153-1.77.5-.507 1.103-.9 1.77-1.15C4.225.234 5.045.077 5.874.06 6.958 0 7.285 0 10 0zm0 1.798h.01c-2.674 0-2.992.06-4.046.06-.626.02-1.245.15-1.83.377-.434.16-.828.414-1.152.746-.337.31-.602.69-.775 1.113-.222.595-.34 1.224-.348 1.858-.06 1.064-.06 1.372-.06 4.045s.06 2.99.06 4.044c.007.633.125 1.262.347 1.857.17.434.434.824.775 1.142.31.33.692.587 1.113.754.596.222 1.224.34 1.86.348 1.063.06 1.37.06 4.045.06 2.674 0 2.992-.06 4.046-.06.635-.008 1.263-.126 1.86-.348.87-.336 1.56-1.025 1.897-1.897.217-.593.332-1.218.338-1.848.06-1.064.06-1.372.06-4.045s-.06-2.99-.06-4.044c-.01-.623-.128-1.24-.347-1.827-.16-.435-.414-.83-.745-1.152-.318-.34-.71-.605-1.143-.774-.596-.222-1.224-.34-1.86-.348-1.063-.06-1.37-.06-4.045-.06zm0 3.1c1.355 0 2.655.538 3.613 1.496.958.958 1.496 2.257 1.496 3.61 0 2.82-2.288 5.108-5.11 5.108-2.822 0-5.11-2.287-5.11-5.107 0-2.82 2.288-5.107 5.11-5.107zm0 8.415c.878 0 1.72-.348 2.34-.97.62-.62.97-1.46.97-2.338 0-1.827-1.482-3.31-3.31-3.31s-3.31 1.483-3.31 3.31 1.482 3.308 3.31 3.308zm6.51-8.633c0 .658-.533 1.192-1.192 1.192-.66 0-1.193-.534-1.193-1.192 0-.66.534-1.193 1.193-1.193.316 0 .62.126.844.35.223.223.35.526.35.843z"/></svg>