<svg xmlns="http://www.w3.org/2000/svg" viewBox="0 0 1200 182.5"><path d="M94.2 39.6c-6 0-10.3 4.5-10.3 10.5v82.1c0 6 4.3 10.5 10.3 10.5s10.3-4.5 10.3-10.5V50.1c0-6-4.3-10.5-10.3-10.5zm161.1 0H245v41.3h10.3c6 0 10.3-4.5 10.3-10.5V50.1c.1-6-4.3-10.5-10.3-10.5z"/><path d="M1179.1 0H20.9C9.4 0 0 9.4 0 20.9v140.6c0 11.6 9.4 20.9 20.9 20.9H1179c11.6 0 20.9-9.4 20.9-20.9V20.9c.1-11.5-9.3-20.9-20.8-20.9zM166.4 142.4c0 12.2-8.9 21-21 21H43c-12.2 0-21-8.9-21-21V40c0-12.2 8.9-21 21-21h102.3c12.2 0 21 8.9 21 21v102.4zm161.2-61.9c0 12.2-8.9 21-21 21H245v61.9h-61.9V19h123.4c12.2 0 21 8.9 21 21v40.5zm161-26.4h-82.5v21h82.5v32.2h-82.5v21.5l82.5-.4v35.1H365.2c-12.2 0-21-8.9-21-21V40c0-12.2 8.9-21 21-21h123.4v35.1zm161.1 109.3h-61.9V50.1c0-6-4.3-10.5-10.3-10.5s-10.3 4.5-10.3 10.5v113.3h-61.9V19h123.4c12.2 0 21 8.9 21 21v123.4zm293.1 0h-61.9V50.1c0-6-4.3-10.5-10.3-10.5s-10.3 4.5-10.3 10.5v113.3h-61.9V50.1c0-6-4.3-10.5-10.3-10.5s-10.3 4.5-10.3 10.5v113.3h-61.9V40c0-12.2 8.9-21 21-21h184.9c12.2 0 21 8.9 21 21v123.4zm78.9 0h-61.9V19h61.9v144.4zm160.8-92.8h-61.9V50.1c0-6-4.3-10.5-10.3-10.5-6 0-10.3 4.5-10.3 10.5v82.1c0 6 4.3 10.5 10.3 10.5 6 0 10.3-4.5 10.3-10.5v-20.4h61.9v30.5c0 12.2-8.9 21-21 21h-102.3c-12.2 0-21-8.9-21-21V40c0-12.2 8.9-21 21-21h102.3c12.2 0 21 8.9 21 21v30.6z"/></svg>