<svg xmlns="http://www.w3.org/2000/svg" viewBox="0 0 14 18"><path fill="#FF1464" d="M3.33494 0C3.33494 0 4.09484 1.88505 3.82154 4.2567C3.54779 6.62835 0.236392 9.669 0.250042 12.6792C0.263692 15.6894 5.14004 18 5.14004 18C5.14004 18 4.03634 16.0332 5.97389 12.7953C5.97389 12.7953 8.21519 14.3668 7.98599 15.7594C7.74464 17.2239 6.60914 18 6.60914 18C6.60914 18 13.4295 17.1792 13.4899 11.676C13.551 6.1722 9.49469 2.73315 9.49469 2.73315C9.49469 2.73315 9.94184 4.95165 8.72384 6.97485C8.72384 6.97485 5.67599 0.7605 3.33494 0ZM5.38739 4.30215C6.08369 5.3508 6.77669 6.5532 7.32239 7.66335L8.58509 10.2348L10.0626 7.78005C10.285 7.4103 10.4641 7.0371 10.6069 6.66915C11.3284 7.9623 11.9508 9.6618 11.9287 11.6584C11.9079 13.524 10.786 14.681 9.55904 15.3902C9.44159 13.4235 7.33139 11.8395 6.87059 11.5164L5.49629 10.5534L4.63394 11.9932C3.95714 13.1242 3.58724 14.1443 3.40754 15.03C2.53679 14.3027 1.81514 13.4493 1.81199 12.672C1.80614 11.4366 2.69579 9.9708 3.55619 8.5536C4.40819 7.1514 5.21219 5.8263 5.37299 4.4358C5.37824 4.39095 5.38274 4.34625 5.38739 4.30215Z"/></svg>